<?xml version="1.0" standalone="no"?>
<!DOCTYPE svg PUBLIC "-//W3C//DTD SVG 20010904//EN"
 "http://www.w3.org/TR/2001/REC-SVG-20010904/DTD/svg10.dtd">
<svg version="1.0" xmlns="http://www.w3.org/2000/svg"
 width="425.000000pt" height="425.000000pt" viewBox="0 0 425.000000 425.000000"
 preserveAspectRatio="xMidYMid meet">
<metadata>
Created by potrace 1.14, written by Peter Selinger 2001-2017
</metadata>
<g transform="translate(0.000000,425.000000) scale(0.100000,-0.100000)"
fill="#000000" stroke="none">
<path d="M1464 3159 c-59 -17 -126 -71 -158 -129 l-31 -55 -3 -909 c-3 -1034
-7 -972 78 -1057 72 -72 177 -97 268 -65 46 16 1442 894 1483 933 74 69 105
192 75 296 -32 110 -37 114 -816 564 -388 223 -721 412 -740 419 -40 15 -111
16 -156 3z"/>
</g>
</svg>
